<?xml version="1.0" encoding="UTF-8"?>
<svg width="200px" height="200px" viewBox="0 0 200 200" version="1.1" xmlns="http://www.w3.org/2000/svg">
    <defs>
        <linearGradient id="bgGradient" x1="0%" y1="0%" x2="100%" y2="100%">
            <stop offset="0%" stop-color="#8e44ad" />
            <stop offset="100%" stop-color="#3498db" />
        </linearGradient>
    </defs>
    <g stroke="none" fill="none">
        <circle fill="url(#bgGradient)" cx="100" cy="100" r="90"></circle>
        <path d="M45,70 L155,70 L155,130 L45,130 Z" fill="#FFFFFF" opacity="0.15"></path>
        <path d="M60,60 L140,60 C145.523,60 150,64.4772 150,70 L150,130 C150,135.523 145.523,140 140,140 L60,140 C54.4772,140 50,135.523 50,130 L50,70 C50,64.4772 54.4772,60 60,60 Z" fill="#FFFFFF" opacity="0.25"></path>
        <text x="100" y="92" font-family="Arial, sans-serif" font-size="24" font-weight="bold" text-anchor="middle" fill="#FFFFFF">BERIAN</text>
        <text x="100" y="120" font-family="Arial, sans-serif" font-size="22" font-weight="bold" text-anchor="middle" fill="#FFFFFF">MATH</text>
        <g transform="translate(70, 70)" fill="#FFFFFF" opacity="0.6">
            <path d="M5,0 L15,0 L15,5 L20,5 L20,15 L15,15 L15,20 L5,20 L5,15 L0,15 L0,5 L5,5 Z" />
        </g>
        <g transform="translate(120, 70)" fill="#FFFFFF" opacity="0.6">
            <path d="M0,5 L20,5 L20,15 L0,15 Z" />
        </g>
    </g>
</svg> 